<?xml version="1.0" encoding="utf-8"?>
<!-- Generator: Adobe Illustrator 21.0.0, SVG Export Plug-In . SVG Version: 6.00 Build 0)  -->
<svg version="1.1" id="Capa_1" xmlns="http://www.w3.org/2000/svg" xmlns:xlink="http://www.w3.org/1999/xlink" x="0px" y="0px"
	 viewBox="0 0 100 100" style="enable-background:new 0 0 100 100;" xml:space="preserve">
<style type="text/css">
	.st0{fill:#FFFFFF;}
</style>
<circle cx="50" cy="50" r="50"/>
<g>
	<path class="st0" d="M79.3,76.8c-0.5-0.6-2-0.2-3.6,0.8c-2.6-5.9-10.3-17.4-18.3-28.4c3.9-4.4,7.4-8.5,10.2-11.9
		c12.6-15.4,11-17.2,8-19.7s-5.4-3.9-18,11.5c-2.3,2.8-4.9,6.2-7.7,9.9c-2.7-3.6-5.3-6.8-7.5-9.5c-12.6-15.4-15-13.9-18-11.5
		c-3,2.5-4.7,4.3,8,19.7C35,41,38.5,45,42.2,49.3c-7.9,10.9-15.4,22.2-18,28c-1.7-1-3.1-1.4-3.6-0.8c-0.6,0.7-0.4,4.1,1.7,5.9
		c2.2,1.8,5.5,1.3,6.1,0.5c0.4-0.5-0.1-1.8-1.3-3.1c4.9-3.5,13.9-12.6,22.7-22c8.9,9.6,18,18.8,23,22.4c-1.2,1.3-1.8,2.6-1.3,3.1
		c0.6,0.7,3.9,1.2,6.1-0.5S80,77.6,79.3,76.8z"/>
	<path class="st0" d="M69.6,65.4c3.7-4.4,5.9-10.1,5.9-16.3c0-5.2-1.6-10.1-4.3-14.1c-3.5,4.2-7.8,9.3-12.5,14.6
		C62.5,55,66.3,60.4,69.6,65.4z"/>
	<path class="st0" d="M59.3,25.4c-2.9-1.2-6.1-1.8-9.4-1.8c-3.4,0-6.6,0.6-9.5,1.8c2.8,3.4,6.1,7.6,9.5,12.1
		C53.2,33,56.4,28.8,59.3,25.4z"/>
	<path class="st0" d="M40.9,49.5c-4.7-5.3-9-10.3-12.5-14.5c-2.7,4-4.2,8.9-4.2,14.1c0,6.1,2.2,11.8,5.8,16.2
		C33.3,60.3,37,54.9,40.9,49.5z"/>
	<path class="st0" d="M37.8,71.7c3.6,1.9,7.6,2.9,12,2.9c4.3,0,8.3-1.1,11.9-2.9c-3.8-3.8-7.9-8.1-11.9-12.5
		C45.7,63.7,41.6,67.9,37.8,71.7z"/>
</g>
</svg>
