<?xml version="1.0" encoding="utf-8"?>
<!-- Generator: Adobe Illustrator 21.0.0, SVG Export Plug-In . SVG Version: 6.00 Build 0)  -->
<svg version="1.1" id="Capa_1" xmlns="http://www.w3.org/2000/svg" xmlns:xlink="http://www.w3.org/1999/xlink" x="0px" y="0px"
	 viewBox="0 0 100 100" style="enable-background:new 0 0 100 100;" xml:space="preserve">
<style type="text/css">
	.st0{fill:#FFFFFF;}
</style>
<circle cx="50" cy="50" r="50"/>
<g>
	<g>
		<path class="st0" d="M50,72c-17.7,0-34.4-7.8-45.8-21.4L3.6,50l0.6-0.7C15.6,35.7,32.3,28,50,28c17.7,0,34.4,7.8,45.8,21.4
			l0.6,0.7l-0.6,0.7C84.4,64.3,67.7,72,50,72z M6.4,50c11,12.7,26.8,20,43.6,20c16.8,0,32.7-7.3,43.6-20C82.7,37.3,66.8,30,50,30
			C33.2,30,17.3,37.3,6.4,50z"/>
	</g>
	<g>
		<path class="st0" d="M50.3,33.6c-9.2,0-16.6,7.5-16.6,16.6s7.5,16.6,16.6,16.6s16.6-7.5,16.6-16.6S59.5,33.6,50.3,33.6z
			 M50.3,57.1c-3.8,0-6.9-3.1-6.9-6.9c0-3.8,3.1-6.9,6.9-6.9s6.9,3.1,6.9,6.9C57.2,54,54.1,57.1,50.3,57.1z"/>
		<path class="st0" d="M50.3,67.2c-9.4,0-17-7.6-17-17s7.6-17,17-17s17,7.6,17,17S59.6,67.2,50.3,67.2z M50.3,33.9
			c-9,0-16.3,7.3-16.3,16.3s7.3,16.3,16.3,16.3s16.3-7.3,16.3-16.3S59.3,33.9,50.3,33.9z M50.3,57.5c-4,0-7.3-3.3-7.3-7.3
			s3.3-7.3,7.3-7.3s7.3,3.3,7.3,7.3S54.3,57.5,50.3,57.5z M50.3,43.6c-3.6,0-6.6,3-6.6,6.6c0,3.6,3,6.6,6.6,6.6c3.6,0,6.6-3,6.6-6.6
			C56.9,46.6,53.9,43.6,50.3,43.6z"/>
	</g>
</g>
</svg>
