<?xml version="1.0" encoding="utf-8"?>
<!-- Generator: Adobe Illustrator 21.0.0, SVG Export Plug-In . SVG Version: 6.00 Build 0)  -->
<svg version="1.1" id="Capa_1" xmlns="http://www.w3.org/2000/svg" xmlns:xlink="http://www.w3.org/1999/xlink" x="0px" y="0px"
	 viewBox="0 0 100 100" style="enable-background:new 0 0 100 100;" xml:space="preserve">
<style type="text/css">
	.st0{fill:#DCE9EF;}
	.st1{fill:#E5B54A;}
</style>
<circle cx="50" cy="50" r="50"/>
<g>
	<path class="st0" d="M64.3,11.4c2.7,24.7-4,32.4-4,32.4L47.7,61.1c4,1.5,7.1,4.7,8.6,8.7l18.2-13C83.6,38.8,64.3,11.4,64.3,11.4z"
		/>
	<path class="st1" d="M47.7,61.1c-1.7-0.6-3.4-1-5.3-1c-1.5,0-3,0.2-4.4,0.7l-0.1,2.4L32.4,69l-1-4c-2.4,2.7-3.9,6.2-3.9,10.1
		c0,8.2,6.7,14.9,14.9,14.9s14.9-6.7,14.9-14.9c0-1.8-0.3-3.6-0.9-5.2C54.9,65.9,51.7,62.7,47.7,61.1z"/>
	<path class="st0" d="M37.9,63.2l0.1-2.4l0.1-2.6c0,0,5.5-8.6,7.3-10.7c1.8-2.1-2-14.3-4.4-20.3C38.6,21.2,23,10,23,10
		c12,12.8,6,34.1,6,34.1c-1.8,7.5-0.2,9.9-0.2,9.9l2.7,11l1,4L37.9,63.2z"/>
</g>
</svg>
