<?xml version="1.0" encoding="utf-8"?>
<!-- Generator: Adobe Illustrator 21.0.0, SVG Export Plug-In . SVG Version: 6.00 Build 0)  -->
<svg version="1.1" id="Capa_1" xmlns="http://www.w3.org/2000/svg" xmlns:xlink="http://www.w3.org/1999/xlink" x="0px" y="0px"
	 viewBox="0 0 100 100" style="enable-background:new 0 0 100 100;" xml:space="preserve">
<style type="text/css">
	.st0{fill:#FFFFFF;}
</style>
<circle cx="50" cy="50" r="50"/>
<g>
	<path class="st0" d="M28.4,56.2c0,3.2-2.5,5.8-5.6,5.8V50.4C25.9,50.4,28.4,53,28.4,56.2z"/>
	<g>
		<path class="st0" d="M50,19.1c-15.6,0-28.4,12.5-29.6,28.4c0.7-0.2,1.4-0.3,2.1-0.3c4.5,0,8.3,3.3,9.3,7.7h16.1
			c0-8.3,6.5-15,14.4-15c8,0,14.4,6.7,14.4,15s-6.5,15-14.4,15C55,70,49,64.4,48,57.1H32c0,4.6-3,8.4-7.1,9.5
			c5.3,8.6,14.5,14.3,25,14.3c16.4,0,29.7-13.8,29.7-30.9S66.3,19.1,50,19.1z M38.6,44.9L36.5,41L32,44l2.6-3.7l-8.9,0.9l1.1-1.4
			l-4.4,0.6l3.6-5.1l9.3-6l-5.7,6l17.2-1.2L38.6,44.9z"/>
		<ellipse class="st0" cx="62.2" cy="55" rx="12" ry="12.5"/>
	</g>
</g>
</svg>
