<?xml version="1.0" encoding="utf-8"?>
<!-- Generator: Adobe Illustrator 21.0.0, SVG Export Plug-In . SVG Version: 6.00 Build 0)  -->
<svg version="1.1" id="Capa_1" xmlns="http://www.w3.org/2000/svg" xmlns:xlink="http://www.w3.org/1999/xlink" x="0px" y="0px"
	 viewBox="0 0 100 100" style="enable-background:new 0 0 100 100;" xml:space="preserve">
<style type="text/css">
	.st0{fill:#FFFFFF;}
</style>
<circle cx="50" cy="50" r="50"/>
<path class="st0" d="M70.3,30c0-0.4,0-0.8,0-1.2c0-10.4-9.1-18.8-20.2-18.8s-20.2,8.4-20.2,18.8c0,0.4,0,0.8,0,1.2
	c-8.4,0.5-15,7-15,14.9c0,7.9,6.7,14.4,15.1,14.9v25.1c0,0.5,0.4,0.9,1,0.9c0.5,0,1-0.4,1-0.9V59.7c7.5-0.4,13.7-5.7,14.9-12.4
	c0.6,0.1,1.2,0.2,1.8,0.2l-0.2,41.3c0,0.7,0.6,1.2,1.3,1.2c0,0,0,0,0,0c0.7,0,1.3-0.5,1.3-1.2l0.2-41.3c0.6,0,1.2-0.1,1.8-0.2
	c1.2,6.8,7.4,12,14.9,12.4v25.1c0,0.5,0.4,0.9,1,0.9s1-0.4,1-0.9V59.7c8.4-0.5,15.1-7,15.1-14.9C85,37.1,78.5,30.7,70.3,30z
	 M31.1,58c-7.8,0-14.1-5.9-14.1-13.1c0-7,5.9-12.7,13.3-13.1c1.3,7.3,7.2,13.3,14.8,15.2C43.9,53.2,38.1,58,31.1,58z M32.8,31.9
	C39.6,32.6,45,38,45.2,44.5C38.9,42.8,34.1,37.9,32.8,31.9z M52.9,45c-0.9,0.1-1.8,0.2-2.7,0.2c-1,0-2.1-0.1-3.1-0.2c0,0,0,0,0-0.1
	c0-7.7-6.4-14.1-14.6-14.8c0-0.4-0.1-0.8-0.1-1.3c0-9,7.9-16.4,17.7-16.4s17.7,7.4,17.7,16.4c0,0.4,0,0.8,0,1.2
	c-8.3,0.6-14.9,7-14.9,14.9C52.9,44.9,52.9,44.9,52.9,45z M67.5,31.8c-1.3,6.2-6.2,11.1-12.7,12.8C55,37.9,60.5,32.5,67.5,31.8z
	 M68.9,58c-7,0-12.8-4.8-13.9-11c7.8-1.8,13.8-7.8,15.1-15.2c7.2,0.6,12.9,6.2,12.9,13.1C83.1,52.1,76.7,58,68.9,58z"/>
</svg>
